<mxfile host="www.draw.io" modified="2020-01-20T09:05:17.466Z" agent="Mozilla/5.0 (Macintosh; Intel Mac OS X 10_15_2) AppleWebKit/537.36 (KHTML, like Gecko) Chrome/79.0.3945.88 Safari/537.36" etag="tjZc5lC0LmYry9IYgg4d" version="12.5.5" type="github" pages="2">
  <diagram id="C5RBs43oDa-KdzZeNtuy" name="Page-1">
    <mxGraphModel dx="1231" dy="438" grid="1" gridSize="10" guides="1" tooltips="1" connect="1" arrows="1" fold="1" page="1" pageScale="1" pageWidth="827" pageHeight="1169" math="0" shadow="0">
      <root>
        <mxCell id="WIyWlLk6GJQsqaUBKTNV-0"/>
        <mxCell id="WIyWlLk6GJQsqaUBKTNV-1" parent="WIyWlLk6GJQsqaUBKTNV-0"/>
        <mxCell id="WIyWlLk6GJQsqaUBKTNV-2" value="" style="rounded=0;html=1;jettySize=auto;orthogonalLoop=1;fontSize=11;endArrow=block;endFill=0;endSize=8;strokeWidth=1;shadow=0;labelBackgroundColor=none;edgeStyle=orthogonalEdgeStyle;" parent="WIyWlLk6GJQsqaUBKTNV-1" source="WIyWlLk6GJQsqaUBKTNV-3" target="WIyWlLk6GJQsqaUBKTNV-6" edge="1">
          <mxGeometry relative="1" as="geometry"/>
        </mxCell>
        <mxCell id="WIyWlLk6GJQsqaUBKTNV-3" value="&lt;span style=&quot;font-family: &amp;#34;menlo&amp;#34; , &amp;#34;monaco&amp;#34; , &amp;#34;courier new&amp;#34; , monospace ; white-space: pre&quot;&gt;&lt;font style=&quot;font-size: 18px&quot;&gt;sceneJsonGeneration&lt;/font&gt;&lt;br&gt;p-&amp;gt;matchId&lt;br&gt;p-&amp;gt;&lt;/span&gt;&lt;span style=&quot;font-family: &amp;#34;menlo&amp;#34; , &amp;#34;monaco&amp;#34; , &amp;#34;courier new&amp;#34; , monospace ; white-space: pre&quot;&gt;providerId(DFL/STATS)&lt;br&gt;&lt;/span&gt;&lt;span style=&quot;font-family: &amp;#34;menlo&amp;#34; , &amp;#34;monaco&amp;#34; , &amp;#34;courier new&amp;#34; , monospace ; white-space: pre&quot;&gt;p-&amp;gt;&lt;/span&gt;&lt;span style=&quot;font-family: &amp;#34;menlo&amp;#34; , &amp;#34;monaco&amp;#34; , &amp;#34;courier new&amp;#34; , monospace ; white-space: pre&quot;&gt;create_json&lt;/span&gt;&lt;span style=&quot;font-family: &amp;#34;menlo&amp;#34; , &amp;#34;monaco&amp;#34; , &amp;#34;courier new&amp;#34; , monospace ; white-space: pre&quot;&gt;&lt;br&gt;p-&amp;gt;&lt;/span&gt;&lt;span style=&quot;font-family: &amp;#34;menlo&amp;#34; , &amp;#34;monaco&amp;#34; , &amp;#34;courier new&amp;#34; , monospace ; white-space: pre&quot;&gt;create_scenes&lt;/span&gt;&lt;span style=&quot;font-family: &amp;#34;menlo&amp;#34; , &amp;#34;monaco&amp;#34; , &amp;#34;courier new&amp;#34; , monospace ; white-space: pre&quot;&gt;&lt;br&gt;&lt;/span&gt;&lt;span style=&quot;font-family: &amp;#34;menlo&amp;#34; , &amp;#34;monaco&amp;#34; , &amp;#34;courier new&amp;#34; , monospace ; white-space: pre&quot;&gt;p-&amp;gt;&lt;/span&gt;&lt;span style=&quot;font-family: &amp;#34;menlo&amp;#34; , &amp;#34;monaco&amp;#34; , &amp;#34;courier new&amp;#34; , monospace ; white-space: pre&quot;&gt;source&lt;/span&gt;" style="rounded=1;whiteSpace=wrap;html=1;fontSize=12;glass=0;strokeWidth=1;shadow=0;align=left;fontColor=#000000;" parent="WIyWlLk6GJQsqaUBKTNV-1" vertex="1">
          <mxGeometry x="110" y="10" width="240" height="110" as="geometry"/>
        </mxCell>
        <mxCell id="urwRw_u1eoGXGEl6cAyF-3" value="" style="edgeStyle=orthogonalEdgeStyle;rounded=0;orthogonalLoop=1;jettySize=auto;html=1;fontColor=#000000;" parent="WIyWlLk6GJQsqaUBKTNV-1" source="WIyWlLk6GJQsqaUBKTNV-6" target="urwRw_u1eoGXGEl6cAyF-2" edge="1">
          <mxGeometry relative="1" as="geometry"/>
        </mxCell>
        <mxCell id="urwRw_u1eoGXGEl6cAyF-9" value="Yes" style="text;html=1;align=center;verticalAlign=middle;resizable=0;points=[];labelBackgroundColor=#ffffff;fontColor=#000000;" parent="urwRw_u1eoGXGEl6cAyF-3" vertex="1" connectable="0">
          <mxGeometry x="-0.2417" relative="1" as="geometry">
            <mxPoint x="-20" as="offset"/>
          </mxGeometry>
        </mxCell>
        <mxCell id="urwRw_u1eoGXGEl6cAyF-15" value="" style="edgeStyle=orthogonalEdgeStyle;rounded=0;orthogonalLoop=1;jettySize=auto;html=1;fontColor=#000000;" parent="WIyWlLk6GJQsqaUBKTNV-1" source="WIyWlLk6GJQsqaUBKTNV-6" target="urwRw_u1eoGXGEl6cAyF-14" edge="1">
          <mxGeometry relative="1" as="geometry"/>
        </mxCell>
        <mxCell id="urwRw_u1eoGXGEl6cAyF-16" value="No" style="text;html=1;align=center;verticalAlign=middle;resizable=0;points=[];labelBackgroundColor=#ffffff;fontColor=#000000;" parent="urwRw_u1eoGXGEl6cAyF-15" vertex="1" connectable="0">
          <mxGeometry x="0.0174" y="4" relative="1" as="geometry">
            <mxPoint x="-3.17" y="-6" as="offset"/>
          </mxGeometry>
        </mxCell>
        <mxCell id="WIyWlLk6GJQsqaUBKTNV-6" value="source is &#39;S3&#39;" style="rhombus;whiteSpace=wrap;html=1;shadow=0;fontFamily=Helvetica;fontSize=12;align=center;strokeWidth=1;spacing=6;spacingTop=-4;" parent="WIyWlLk6GJQsqaUBKTNV-1" vertex="1">
          <mxGeometry x="160" y="170" width="140" height="60" as="geometry"/>
        </mxCell>
        <mxCell id="urwRw_u1eoGXGEl6cAyF-19" value="" style="edgeStyle=orthogonalEdgeStyle;rounded=0;orthogonalLoop=1;jettySize=auto;html=1;fontColor=#000000;" parent="WIyWlLk6GJQsqaUBKTNV-1" source="urwRw_u1eoGXGEl6cAyF-14" target="urwRw_u1eoGXGEl6cAyF-13" edge="1">
          <mxGeometry relative="1" as="geometry"/>
        </mxCell>
        <mxCell id="urwRw_u1eoGXGEl6cAyF-26" value="Yes" style="text;html=1;align=center;verticalAlign=middle;resizable=0;points=[];labelBackgroundColor=#ffffff;fontColor=#000000;" parent="urwRw_u1eoGXGEl6cAyF-19" vertex="1" connectable="0">
          <mxGeometry x="-0.2833" relative="1" as="geometry">
            <mxPoint x="-20" as="offset"/>
          </mxGeometry>
        </mxCell>
        <mxCell id="urwRw_u1eoGXGEl6cAyF-25" value="" style="edgeStyle=orthogonalEdgeStyle;rounded=0;orthogonalLoop=1;jettySize=auto;html=1;fontColor=#000000;entryX=0.5;entryY=0;entryDx=0;entryDy=0;" parent="WIyWlLk6GJQsqaUBKTNV-1" source="urwRw_u1eoGXGEl6cAyF-14" target="urwRw_u1eoGXGEl6cAyF-28" edge="1">
          <mxGeometry relative="1" as="geometry">
            <mxPoint x="850" y="200" as="targetPoint"/>
          </mxGeometry>
        </mxCell>
        <mxCell id="urwRw_u1eoGXGEl6cAyF-27" value="No" style="text;html=1;align=center;verticalAlign=middle;resizable=0;points=[];labelBackgroundColor=#ffffff;fontColor=#000000;" parent="urwRw_u1eoGXGEl6cAyF-25" vertex="1" connectable="0">
          <mxGeometry x="-0.0704" y="-4" relative="1" as="geometry">
            <mxPoint y="-14" as="offset"/>
          </mxGeometry>
        </mxCell>
        <mxCell id="urwRw_u1eoGXGEl6cAyF-14" value="source is &#39;local&#39;" style="rhombus;whiteSpace=wrap;html=1;shadow=0;fontFamily=Helvetica;fontSize=12;align=center;strokeWidth=1;spacing=6;spacingTop=-4;" parent="WIyWlLk6GJQsqaUBKTNV-1" vertex="1">
          <mxGeometry x="530" y="170" width="140" height="60" as="geometry"/>
        </mxCell>
        <mxCell id="urwRw_u1eoGXGEl6cAyF-5" style="edgeStyle=orthogonalEdgeStyle;rounded=0;orthogonalLoop=1;jettySize=auto;html=1;exitX=0.5;exitY=1;exitDx=0;exitDy=0;fontColor=#000000;" parent="WIyWlLk6GJQsqaUBKTNV-1" source="urwRw_u1eoGXGEl6cAyF-2" target="urwRw_u1eoGXGEl6cAyF-4" edge="1">
          <mxGeometry relative="1" as="geometry"/>
        </mxCell>
        <mxCell id="urwRw_u1eoGXGEl6cAyF-2" value="&lt;span style=&quot;font-family: &amp;#34;menlo&amp;#34; , &amp;#34;monaco&amp;#34; , &amp;#34;courier new&amp;#34; , monospace ; white-space: pre&quot;&gt;&lt;span style=&quot;font-size: 18px&quot;&gt;processMatch&lt;/span&gt;&lt;br&gt;p-&amp;gt;matchId&lt;br&gt;p-&amp;gt;&lt;/span&gt;&lt;span style=&quot;font-family: &amp;#34;menlo&amp;#34; , &amp;#34;monaco&amp;#34; , &amp;#34;courier new&amp;#34; , monospace ; white-space: pre&quot;&gt;providerId&lt;/span&gt;&lt;span style=&quot;font-family: &amp;#34;menlo&amp;#34; , &amp;#34;monaco&amp;#34; , &amp;#34;courier new&amp;#34; , monospace ; white-space: pre&quot;&gt;&lt;br&gt;&lt;/span&gt;&lt;span style=&quot;font-family: &amp;#34;menlo&amp;#34; , &amp;#34;monaco&amp;#34; , &amp;#34;courier new&amp;#34; , monospace ; white-space: pre&quot;&gt;p-&amp;gt;&lt;/span&gt;&lt;span style=&quot;font-family: &amp;#34;menlo&amp;#34; , &amp;#34;monaco&amp;#34; , &amp;#34;courier new&amp;#34; , monospace ; white-space: pre&quot;&gt;source&lt;/span&gt;" style="rounded=1;whiteSpace=wrap;html=1;fontSize=12;glass=0;strokeWidth=1;shadow=0;align=left;fontColor=#000000;" parent="WIyWlLk6GJQsqaUBKTNV-1" vertex="1">
          <mxGeometry x="110" y="270" width="240" height="70" as="geometry"/>
        </mxCell>
        <mxCell id="urwRw_u1eoGXGEl6cAyF-8" value="" style="edgeStyle=orthogonalEdgeStyle;rounded=0;orthogonalLoop=1;jettySize=auto;html=1;fontColor=#000000;" parent="WIyWlLk6GJQsqaUBKTNV-1" source="urwRw_u1eoGXGEl6cAyF-4" target="urwRw_u1eoGXGEl6cAyF-7" edge="1">
          <mxGeometry relative="1" as="geometry"/>
        </mxCell>
        <mxCell id="urwRw_u1eoGXGEl6cAyF-4" value="&lt;span style=&quot;font-family: &amp;#34;menlo&amp;#34; , &amp;#34;monaco&amp;#34; , &amp;#34;courier new&amp;#34; , monospace ; white-space: pre&quot;&gt;&lt;span style=&quot;font-size: 18px&quot;&gt;read and parse Lineup &lt;br/&gt;XML(S3) &lt;/span&gt;&lt;br&gt;p-&amp;gt;matchId&lt;br&gt;&lt;/span&gt;" style="rounded=1;whiteSpace=wrap;html=1;fontSize=12;glass=0;strokeWidth=1;shadow=0;align=left;fontColor=#000000;" parent="WIyWlLk6GJQsqaUBKTNV-1" vertex="1">
          <mxGeometry x="110" y="390" width="240" height="70" as="geometry"/>
        </mxCell>
        <mxCell id="urwRw_u1eoGXGEl6cAyF-36" value="" style="edgeStyle=orthogonalEdgeStyle;rounded=0;orthogonalLoop=1;jettySize=auto;html=1;fontColor=#000000;exitX=0.5;exitY=1;exitDx=0;exitDy=0;" parent="WIyWlLk6GJQsqaUBKTNV-1" source="urwRw_u1eoGXGEl6cAyF-7" target="urwRw_u1eoGXGEl6cAyF-34" edge="1">
          <mxGeometry relative="1" as="geometry"/>
        </mxCell>
        <mxCell id="urwRw_u1eoGXGEl6cAyF-7" value="&lt;span style=&quot;font-family: &amp;#34;menlo&amp;#34; , &amp;#34;monaco&amp;#34; , &amp;#34;courier new&amp;#34; , monospace ; white-space: pre&quot;&gt;&lt;span style=&quot;font-size: 18px&quot;&gt;read and parse &lt;br/&gt;Tracking XML(S3) &lt;/span&gt;&lt;br&gt;p-&amp;gt;matchId&lt;br&gt;&lt;/span&gt;" style="rounded=1;whiteSpace=wrap;html=1;fontSize=12;glass=0;strokeWidth=1;shadow=0;align=left;fontColor=#000000;" parent="WIyWlLk6GJQsqaUBKTNV-1" vertex="1">
          <mxGeometry x="110" y="510" width="240" height="70" as="geometry"/>
        </mxCell>
        <mxCell id="urwRw_u1eoGXGEl6cAyF-22" value="" style="edgeStyle=orthogonalEdgeStyle;rounded=0;orthogonalLoop=1;jettySize=auto;html=1;fontColor=#000000;" parent="WIyWlLk6GJQsqaUBKTNV-1" source="urwRw_u1eoGXGEl6cAyF-13" target="urwRw_u1eoGXGEl6cAyF-20" edge="1">
          <mxGeometry relative="1" as="geometry"/>
        </mxCell>
        <mxCell id="urwRw_u1eoGXGEl6cAyF-13" value="&lt;span style=&quot;font-family: &amp;#34;menlo&amp;#34; , &amp;#34;monaco&amp;#34; , &amp;#34;courier new&amp;#34; , monospace ; white-space: pre&quot;&gt;&lt;span style=&quot;font-size: 18px&quot;&gt;processMatch&lt;/span&gt;&lt;br&gt;p-&amp;gt;matchId&lt;br&gt;p-&amp;gt;&lt;/span&gt;&lt;span style=&quot;font-family: &amp;#34;menlo&amp;#34; , &amp;#34;monaco&amp;#34; , &amp;#34;courier new&amp;#34; , monospace ; white-space: pre&quot;&gt;providerId&lt;/span&gt;&lt;span style=&quot;font-family: &amp;#34;menlo&amp;#34; , &amp;#34;monaco&amp;#34; , &amp;#34;courier new&amp;#34; , monospace ; white-space: pre&quot;&gt;&lt;br&gt;&lt;/span&gt;&lt;span style=&quot;font-family: &amp;#34;menlo&amp;#34; , &amp;#34;monaco&amp;#34; , &amp;#34;courier new&amp;#34; , monospace ; white-space: pre&quot;&gt;p-&amp;gt;&lt;/span&gt;&lt;span style=&quot;font-family: &amp;#34;menlo&amp;#34; , &amp;#34;monaco&amp;#34; , &amp;#34;courier new&amp;#34; , monospace ; white-space: pre&quot;&gt;source&lt;/span&gt;" style="rounded=1;whiteSpace=wrap;html=1;fontSize=12;glass=0;strokeWidth=1;shadow=0;align=left;fontColor=#000000;" parent="WIyWlLk6GJQsqaUBKTNV-1" vertex="1">
          <mxGeometry x="480" y="270" width="240" height="70" as="geometry"/>
        </mxCell>
        <mxCell id="urwRw_u1eoGXGEl6cAyF-23" value="" style="edgeStyle=orthogonalEdgeStyle;rounded=0;orthogonalLoop=1;jettySize=auto;html=1;fontColor=#000000;" parent="WIyWlLk6GJQsqaUBKTNV-1" source="urwRw_u1eoGXGEl6cAyF-20" target="urwRw_u1eoGXGEl6cAyF-21" edge="1">
          <mxGeometry relative="1" as="geometry"/>
        </mxCell>
        <mxCell id="urwRw_u1eoGXGEl6cAyF-20" value="&lt;span style=&quot;font-family: &amp;#34;menlo&amp;#34; , &amp;#34;monaco&amp;#34; , &amp;#34;courier new&amp;#34; , monospace ; white-space: pre&quot;&gt;&lt;span style=&quot;font-size: 18px&quot;&gt;read and parse Lineup &lt;br&gt;XML(Local) &lt;/span&gt;&lt;br&gt;p-&amp;gt;matchId&lt;br&gt;&lt;/span&gt;" style="rounded=1;whiteSpace=wrap;html=1;fontSize=12;glass=0;strokeWidth=1;shadow=0;align=left;fontColor=#000000;" parent="WIyWlLk6GJQsqaUBKTNV-1" vertex="1">
          <mxGeometry x="480" y="390" width="240" height="70" as="geometry"/>
        </mxCell>
        <mxCell id="urwRw_u1eoGXGEl6cAyF-37" value="" style="edgeStyle=orthogonalEdgeStyle;rounded=0;orthogonalLoop=1;jettySize=auto;html=1;fontColor=#000000;" parent="WIyWlLk6GJQsqaUBKTNV-1" source="urwRw_u1eoGXGEl6cAyF-21" target="urwRw_u1eoGXGEl6cAyF-34" edge="1">
          <mxGeometry relative="1" as="geometry"/>
        </mxCell>
        <mxCell id="urwRw_u1eoGXGEl6cAyF-21" value="&lt;span style=&quot;font-family: &amp;#34;menlo&amp;#34; , &amp;#34;monaco&amp;#34; , &amp;#34;courier new&amp;#34; , monospace ; white-space: pre&quot;&gt;&lt;span style=&quot;font-size: 18px&quot;&gt;read and parse &lt;br&gt;Tracking XML(Local) &lt;/span&gt;&lt;br&gt;p-&amp;gt;matchId&lt;br&gt;&lt;/span&gt;" style="rounded=1;whiteSpace=wrap;html=1;fontSize=12;glass=0;strokeWidth=1;shadow=0;align=left;fontColor=#000000;" parent="WIyWlLk6GJQsqaUBKTNV-1" vertex="1">
          <mxGeometry x="480" y="510" width="240" height="70" as="geometry"/>
        </mxCell>
        <mxCell id="urwRw_u1eoGXGEl6cAyF-31" value="" style="edgeStyle=orthogonalEdgeStyle;rounded=0;orthogonalLoop=1;jettySize=auto;html=1;fontColor=#000000;" parent="WIyWlLk6GJQsqaUBKTNV-1" source="urwRw_u1eoGXGEl6cAyF-28" target="urwRw_u1eoGXGEl6cAyF-29" edge="1">
          <mxGeometry relative="1" as="geometry"/>
        </mxCell>
        <mxCell id="urwRw_u1eoGXGEl6cAyF-28" value="&lt;span style=&quot;font-family: &amp;#34;menlo&amp;#34; , &amp;#34;monaco&amp;#34; , &amp;#34;courier new&amp;#34; , monospace ; white-space: pre&quot;&gt;&lt;span style=&quot;font-size: 18px&quot;&gt;processMatch&lt;/span&gt;&lt;br&gt;p-&amp;gt;matchId&lt;br&gt;p-&amp;gt;&lt;/span&gt;&lt;span style=&quot;font-family: &amp;#34;menlo&amp;#34; , &amp;#34;monaco&amp;#34; , &amp;#34;courier new&amp;#34; , monospace ; white-space: pre&quot;&gt;providerId&lt;/span&gt;&lt;span style=&quot;font-family: &amp;#34;menlo&amp;#34; , &amp;#34;monaco&amp;#34; , &amp;#34;courier new&amp;#34; , monospace ; white-space: pre&quot;&gt;&lt;br&gt;&lt;/span&gt;&lt;span style=&quot;font-family: &amp;#34;menlo&amp;#34; , &amp;#34;monaco&amp;#34; , &amp;#34;courier new&amp;#34; , monospace ; white-space: pre&quot;&gt;p-&amp;gt;&lt;/span&gt;&lt;span style=&quot;font-family: &amp;#34;menlo&amp;#34; , &amp;#34;monaco&amp;#34; , &amp;#34;courier new&amp;#34; , monospace ; white-space: pre&quot;&gt;source&lt;/span&gt;" style="rounded=1;whiteSpace=wrap;html=1;fontSize=12;glass=0;strokeWidth=1;shadow=0;align=left;fontColor=#000000;" parent="WIyWlLk6GJQsqaUBKTNV-1" vertex="1">
          <mxGeometry x="800" y="270" width="240" height="70" as="geometry"/>
        </mxCell>
        <mxCell id="urwRw_u1eoGXGEl6cAyF-32" value="" style="edgeStyle=orthogonalEdgeStyle;rounded=0;orthogonalLoop=1;jettySize=auto;html=1;fontColor=#000000;" parent="WIyWlLk6GJQsqaUBKTNV-1" source="urwRw_u1eoGXGEl6cAyF-29" target="urwRw_u1eoGXGEl6cAyF-30" edge="1">
          <mxGeometry relative="1" as="geometry"/>
        </mxCell>
        <mxCell id="urwRw_u1eoGXGEl6cAyF-29" value="&lt;span style=&quot;font-family: &amp;#34;menlo&amp;#34; , &amp;#34;monaco&amp;#34; , &amp;#34;courier new&amp;#34; , monospace ; white-space: pre&quot;&gt;&lt;span style=&quot;font-size: 18px&quot;&gt;read and parse Lineup &lt;br&gt;XML(DFL/STATS API) &lt;/span&gt;&lt;br&gt;p-&amp;gt;matchId&lt;br&gt;&lt;/span&gt;" style="rounded=1;whiteSpace=wrap;html=1;fontSize=12;glass=0;strokeWidth=1;shadow=0;align=left;fontColor=#000000;" parent="WIyWlLk6GJQsqaUBKTNV-1" vertex="1">
          <mxGeometry x="800" y="390" width="240" height="70" as="geometry"/>
        </mxCell>
        <mxCell id="urwRw_u1eoGXGEl6cAyF-39" value="" style="edgeStyle=orthogonalEdgeStyle;rounded=0;orthogonalLoop=1;jettySize=auto;html=1;fontColor=#000000;entryX=0.5;entryY=0;entryDx=0;entryDy=0;exitX=0.5;exitY=1;exitDx=0;exitDy=0;" parent="WIyWlLk6GJQsqaUBKTNV-1" source="urwRw_u1eoGXGEl6cAyF-30" target="urwRw_u1eoGXGEl6cAyF-34" edge="1">
          <mxGeometry relative="1" as="geometry">
            <mxPoint x="920" y="660" as="targetPoint"/>
          </mxGeometry>
        </mxCell>
        <mxCell id="urwRw_u1eoGXGEl6cAyF-30" value="&lt;span style=&quot;font-family: &amp;#34;menlo&amp;#34; , &amp;#34;monaco&amp;#34; , &amp;#34;courier new&amp;#34; , monospace ; white-space: pre&quot;&gt;&lt;span style=&quot;font-size: 18px&quot;&gt;read and parse &lt;br&gt;Tracking XML&lt;br/&gt;(&lt;/span&gt;&lt;/span&gt;&lt;span style=&quot;font-family: &amp;#34;menlo&amp;#34; , &amp;#34;monaco&amp;#34; , &amp;#34;courier new&amp;#34; , monospace ; font-size: 18px ; white-space: pre&quot;&gt;DFL/STATS API&lt;/span&gt;&lt;span style=&quot;font-family: &amp;#34;menlo&amp;#34; , &amp;#34;monaco&amp;#34; , &amp;#34;courier new&amp;#34; , monospace ; white-space: pre&quot;&gt;&lt;span style=&quot;font-size: 18px&quot;&gt;) &lt;/span&gt;&lt;br&gt;p-&amp;gt;matchId&lt;br&gt;&lt;/span&gt;" style="rounded=1;whiteSpace=wrap;html=1;fontSize=12;glass=0;strokeWidth=1;shadow=0;align=left;fontColor=#000000;" parent="WIyWlLk6GJQsqaUBKTNV-1" vertex="1">
          <mxGeometry x="800" y="500" width="240" height="80" as="geometry"/>
        </mxCell>
        <mxCell id="urwRw_u1eoGXGEl6cAyF-42" value="" style="edgeStyle=orthogonalEdgeStyle;rounded=0;orthogonalLoop=1;jettySize=auto;html=1;fontColor=#000000;" parent="WIyWlLk6GJQsqaUBKTNV-1" source="urwRw_u1eoGXGEl6cAyF-34" target="urwRw_u1eoGXGEl6cAyF-41" edge="1">
          <mxGeometry relative="1" as="geometry"/>
        </mxCell>
        <mxCell id="urwRw_u1eoGXGEl6cAyF-43" value="true" style="text;html=1;align=center;verticalAlign=middle;resizable=0;points=[];labelBackgroundColor=#ffffff;fontColor=#000000;" parent="urwRw_u1eoGXGEl6cAyF-42" vertex="1" connectable="0">
          <mxGeometry x="0.2429" y="-1" relative="1" as="geometry">
            <mxPoint x="-19" y="-13.33" as="offset"/>
          </mxGeometry>
        </mxCell>
        <mxCell id="urwRw_u1eoGXGEl6cAyF-45" style="edgeStyle=orthogonalEdgeStyle;rounded=0;orthogonalLoop=1;jettySize=auto;html=1;exitX=1;exitY=0.5;exitDx=0;exitDy=0;entryX=1;entryY=0.5;entryDx=0;entryDy=0;fontColor=#000000;" parent="WIyWlLk6GJQsqaUBKTNV-1" source="urwRw_u1eoGXGEl6cAyF-34" target="urwRw_u1eoGXGEl6cAyF-44" edge="1">
          <mxGeometry relative="1" as="geometry">
            <Array as="points">
              <mxPoint x="770" y="670"/>
              <mxPoint x="770" y="920"/>
            </Array>
          </mxGeometry>
        </mxCell>
        <mxCell id="urwRw_u1eoGXGEl6cAyF-46" value="false" style="text;html=1;align=center;verticalAlign=middle;resizable=0;points=[];labelBackgroundColor=#ffffff;fontColor=#000000;" parent="urwRw_u1eoGXGEl6cAyF-45" vertex="1" connectable="0">
          <mxGeometry x="-0.7872" relative="1" as="geometry">
            <mxPoint x="2.17" y="-10.17" as="offset"/>
          </mxGeometry>
        </mxCell>
        <mxCell id="urwRw_u1eoGXGEl6cAyF-34" value="&lt;span style=&quot;text-align: left ; white-space: nowrap&quot;&gt;create_scenes&lt;/span&gt;" style="rhombus;whiteSpace=wrap;html=1;shadow=0;fontFamily=Helvetica;fontSize=12;align=center;strokeWidth=1;spacing=6;spacingTop=-4;" parent="WIyWlLk6GJQsqaUBKTNV-1" vertex="1">
          <mxGeometry x="530" y="640" width="140" height="60" as="geometry"/>
        </mxCell>
        <mxCell id="urwRw_u1eoGXGEl6cAyF-47" style="edgeStyle=orthogonalEdgeStyle;rounded=0;orthogonalLoop=1;jettySize=auto;html=1;exitX=0.5;exitY=1;exitDx=0;exitDy=0;entryX=0.5;entryY=0;entryDx=0;entryDy=0;fontColor=#000000;" parent="WIyWlLk6GJQsqaUBKTNV-1" source="urwRw_u1eoGXGEl6cAyF-41" target="urwRw_u1eoGXGEl6cAyF-44" edge="1">
          <mxGeometry relative="1" as="geometry"/>
        </mxCell>
        <mxCell id="urwRw_u1eoGXGEl6cAyF-41" value="&lt;span style=&quot;font-family: &amp;#34;menlo&amp;#34; , &amp;#34;monaco&amp;#34; , &amp;#34;courier new&amp;#34; , monospace ; white-space: pre&quot;&gt;&lt;span style=&quot;font-size: 18px&quot;&gt;Generate Scenes&lt;/span&gt;&lt;br&gt;&lt;/span&gt;" style="rounded=1;whiteSpace=wrap;html=1;fontSize=12;glass=0;strokeWidth=1;shadow=0;align=left;fontColor=#000000;" parent="WIyWlLk6GJQsqaUBKTNV-1" vertex="1">
          <mxGeometry x="480" y="770" width="240" height="70" as="geometry"/>
        </mxCell>
        <mxCell id="urwRw_u1eoGXGEl6cAyF-49" style="edgeStyle=orthogonalEdgeStyle;rounded=0;orthogonalLoop=1;jettySize=auto;html=1;exitX=0.5;exitY=1;exitDx=0;exitDy=0;entryX=0.5;entryY=0;entryDx=0;entryDy=0;fontColor=#000000;" parent="WIyWlLk6GJQsqaUBKTNV-1" source="urwRw_u1eoGXGEl6cAyF-44" target="urwRw_u1eoGXGEl6cAyF-48" edge="1">
          <mxGeometry relative="1" as="geometry"/>
        </mxCell>
        <mxCell id="urwRw_u1eoGXGEl6cAyF-51" value="true" style="text;html=1;align=center;verticalAlign=middle;resizable=0;points=[];labelBackgroundColor=#ffffff;fontColor=#000000;" parent="urwRw_u1eoGXGEl6cAyF-49" vertex="1" connectable="0">
          <mxGeometry y="1" relative="1" as="geometry">
            <mxPoint x="18.67" as="offset"/>
          </mxGeometry>
        </mxCell>
        <mxCell id="urwRw_u1eoGXGEl6cAyF-44" value="&lt;span style=&quot;font-family: &amp;#34;menlo&amp;#34; , &amp;#34;monaco&amp;#34; , &amp;#34;courier new&amp;#34; , monospace ; text-align: left ; white-space: pre&quot;&gt;create_json&lt;/span&gt;" style="rhombus;whiteSpace=wrap;html=1;shadow=0;fontFamily=Helvetica;fontSize=12;align=center;strokeWidth=1;spacing=6;spacingTop=-4;" parent="WIyWlLk6GJQsqaUBKTNV-1" vertex="1">
          <mxGeometry x="530" y="890" width="140" height="60" as="geometry"/>
        </mxCell>
        <mxCell id="urwRw_u1eoGXGEl6cAyF-48" value="&lt;span style=&quot;font-family: &amp;#34;menlo&amp;#34; , &amp;#34;monaco&amp;#34; , &amp;#34;courier new&amp;#34; , monospace ; white-space: pre&quot;&gt;&lt;span style=&quot;font-size: 18px&quot;&gt;Generate Tracking Json&lt;/span&gt;&lt;br&gt;&lt;/span&gt;" style="rounded=1;whiteSpace=wrap;html=1;fontSize=12;glass=0;strokeWidth=1;shadow=0;align=left;fontColor=#000000;" parent="WIyWlLk6GJQsqaUBKTNV-1" vertex="1">
          <mxGeometry x="480" y="1000" width="240" height="70" as="geometry"/>
        </mxCell>
      </root>
    </mxGraphModel>
  </diagram>
  <diagram id="ZFc5zzta5Z7jXo_-OXKQ" name="Page-2">
    <mxGraphModel dx="1231" dy="491" grid="1" gridSize="10" guides="1" tooltips="1" connect="1" arrows="1" fold="1" page="1" pageScale="1" pageWidth="827" pageHeight="1169" math="0" shadow="0">
      <root>
        <mxCell id="RQcI4JkwW768NOqHvp0s-0"/>
        <mxCell id="RQcI4JkwW768NOqHvp0s-1" parent="RQcI4JkwW768NOqHvp0s-0"/>
        <mxCell id="RQcI4JkwW768NOqHvp0s-2" value="Sportsone" style="rounded=0;whiteSpace=wrap;html=1;horizontal=1;verticalAlign=top;" vertex="1" parent="RQcI4JkwW768NOqHvp0s-1">
          <mxGeometry x="40" y="40" width="200" height="370" as="geometry"/>
        </mxCell>
        <mxCell id="RQcI4JkwW768NOqHvp0s-3" value="TI Service" style="rounded=0;whiteSpace=wrap;html=1;" vertex="1" parent="RQcI4JkwW768NOqHvp0s-1">
          <mxGeometry x="360" y="40" width="160" height="20" as="geometry"/>
        </mxCell>
        <mxCell id="RQcI4JkwW768NOqHvp0s-7" value="" style="edgeStyle=orthogonalEdgeStyle;rounded=0;orthogonalLoop=1;jettySize=auto;html=1;" edge="1" parent="RQcI4JkwW768NOqHvp0s-1" source="RQcI4JkwW768NOqHvp0s-4" target="RQcI4JkwW768NOqHvp0s-6">
          <mxGeometry relative="1" as="geometry"/>
        </mxCell>
        <mxCell id="RQcI4JkwW768NOqHvp0s-4" value="generateScenes Job" style="rounded=1;whiteSpace=wrap;html=1;" vertex="1" parent="RQcI4JkwW768NOqHvp0s-1">
          <mxGeometry x="50" y="80" width="180" height="20" as="geometry"/>
        </mxCell>
        <mxCell id="RQcI4JkwW768NOqHvp0s-9" value="" style="edgeStyle=orthogonalEdgeStyle;rounded=0;orthogonalLoop=1;jettySize=auto;html=1;" edge="1" parent="RQcI4JkwW768NOqHvp0s-1" source="RQcI4JkwW768NOqHvp0s-6" target="RQcI4JkwW768NOqHvp0s-8">
          <mxGeometry relative="1" as="geometry"/>
        </mxCell>
        <mxCell id="RQcI4JkwW768NOqHvp0s-6" value="generateAllScenes" style="rounded=1;whiteSpace=wrap;html=1;arcSize=0;" vertex="1" parent="RQcI4JkwW768NOqHvp0s-1">
          <mxGeometry x="50" y="130" width="180" height="20" as="geometry"/>
        </mxCell>
        <mxCell id="RQcI4JkwW768NOqHvp0s-8" value="getCFMatchesWithTrackingData" style="rounded=1;whiteSpace=wrap;html=1;" vertex="1" parent="RQcI4JkwW768NOqHvp0s-1">
          <mxGeometry x="50" y="180" width="180" height="20" as="geometry"/>
        </mxCell>
      </root>
    </mxGraphModel>
  </diagram>
</mxfile>
